<?xml version="1.0" encoding="UTF-8" standalone="no"?>
<svg
   xmlns:dc="http://purl.org/dc/elements/1.1/"
   xmlns:cc="http://creativecommons.org/ns#"
   xmlns:rdf="http://www.w3.org/1999/02/22-rdf-syntax-ns#"
   xmlns:svg="http://www.w3.org/2000/svg"
   xmlns="http://www.w3.org/2000/svg"
   viewBox="0 0 960 720"
   height="720"
   width="960"
   xml:space="preserve"
   id="svg3713"
   version="1.1"><metadata
     id="metadata3719"><rdf:RDF><cc:Work
         rdf:about=""><dc:format>image/svg+xml</dc:format><dc:type
           rdf:resource="http://purl.org/dc/dcmitype/StillImage" /><dc:title></dc:title></cc:Work></rdf:RDF></metadata><defs
     id="defs3717"><clipPath
       id="clipPath3729"
       clipPathUnits="userSpaceOnUse"><path
         style="clip-rule:evenodd"
         id="path3727"
         d="M 0,1.2207e-4 H 720 V 540.00012 H 0 Z" /></clipPath><clipPath
       id="clipPath3761"
       clipPathUnits="userSpaceOnUse"><path
         style="clip-rule:evenodd"
         id="path3759"
         d="M 1.0729e-5,0 H 720.00001 V 540 H 1.0729e-5 Z" /></clipPath><clipPath
       id="clipPath3775"
       clipPathUnits="userSpaceOnUse"><path
         style="clip-rule:evenodd"
         id="path3773"
         d="M 1.0729e-5,0 H 720.00001 V 540 H 1.0729e-5 Z" /></clipPath><clipPath
       id="clipPath3789"
       clipPathUnits="userSpaceOnUse"><path
         style="clip-rule:evenodd"
         id="path3787"
         d="M 1.0729e-5,0 H 720.00001 V 540 H 1.0729e-5 Z" /></clipPath><clipPath
       id="clipPath3803"
       clipPathUnits="userSpaceOnUse"><path
         style="clip-rule:evenodd"
         id="path3801"
         d="M 1.0729e-5,0 H 720.00001 V 540 H 1.0729e-5 Z" /></clipPath><clipPath
       id="clipPath3817"
       clipPathUnits="userSpaceOnUse"><path
         style="clip-rule:evenodd"
         id="path3815"
         d="M 1.0729e-5,0 H 720.00001 V 540 H 1.0729e-5 Z" /></clipPath><clipPath
       id="clipPath3843"
       clipPathUnits="userSpaceOnUse"><path
         style="clip-rule:evenodd"
         id="path3841"
         d="M 1.0729e-5,0 H 720.00001 V 540 H 1.0729e-5 Z" /></clipPath><clipPath
       id="clipPath3857"
       clipPathUnits="userSpaceOnUse"><path
         style="clip-rule:evenodd"
         id="path3855"
         d="M 1.0729e-5,0 H 720.00001 V 540 H 1.0729e-5 Z" /></clipPath><clipPath
       id="clipPath3871"
       clipPathUnits="userSpaceOnUse"><path
         style="clip-rule:evenodd"
         id="path3869"
         d="M 1.0729e-5,0 H 720.00001 V 540 H 1.0729e-5 Z" /></clipPath><clipPath
       id="clipPath3885"
       clipPathUnits="userSpaceOnUse"><path
         style="clip-rule:evenodd"
         id="path3883"
         d="M 1.0729e-5,0 H 720.00001 V 540 H 1.0729e-5 Z" /></clipPath><clipPath
       id="clipPath3899"
       clipPathUnits="userSpaceOnUse"><path
         style="clip-rule:evenodd"
         id="path3897"
         d="M 1.0729e-5,0 H 720.00001 V 540 H 1.0729e-5 Z" /></clipPath><clipPath
       id="clipPath3931"
       clipPathUnits="userSpaceOnUse"><path
         style="clip-rule:evenodd"
         id="path3929"
         d="M 1.0729e-5,0 H 720.00001 V 540 H 1.0729e-5 Z" /></clipPath><clipPath
       id="clipPath3943"
       clipPathUnits="userSpaceOnUse"><path
         style="clip-rule:evenodd"
         id="path3941"
         d="M 1.0729e-5,0 H 720.00001 V 540 H 1.0729e-5 Z" /></clipPath><clipPath
       id="clipPath3955"
       clipPathUnits="userSpaceOnUse"><path
         style="clip-rule:evenodd"
         id="path3953"
         d="M 1.0729e-5,0 H 720.00001 V 540 H 1.0729e-5 Z" /></clipPath><clipPath
       id="clipPath3967"
       clipPathUnits="userSpaceOnUse"><path
         style="clip-rule:evenodd"
         id="path3965"
         d="M 1.0729e-5,0 H 720.00001 V 540 H 1.0729e-5 Z" /></clipPath><clipPath
       id="clipPath3995"
       clipPathUnits="userSpaceOnUse"><path
         style="clip-rule:evenodd"
         id="path3993"
         d="M 1.0729e-5,0 H 720.00001 V 540 H 1.0729e-5 Z" /></clipPath><clipPath
       id="clipPath4007"
       clipPathUnits="userSpaceOnUse"><path
         style="clip-rule:evenodd"
         id="path4005"
         d="M 1.0729e-5,0 H 720.00001 V 540 H 1.0729e-5 Z" /></clipPath><clipPath
       id="clipPath4019"
       clipPathUnits="userSpaceOnUse"><path
         style="clip-rule:evenodd"
         id="path4017"
         d="M 1.0729e-5,0 H 720.00001 V 540 H 1.0729e-5 Z" /></clipPath><clipPath
       id="clipPath4031"
       clipPathUnits="userSpaceOnUse"><path
         style="clip-rule:evenodd"
         id="path4029"
         d="M 1.0729e-5,0 H 720.00001 V 540 H 1.0729e-5 Z" /></clipPath><clipPath
       id="clipPath4043"
       clipPathUnits="userSpaceOnUse"><path
         style="clip-rule:evenodd"
         id="path4041"
         d="M 1.0729e-5,0 H 720.00001 V 540 H 1.0729e-5 Z" /></clipPath><clipPath
       id="clipPath4055"
       clipPathUnits="userSpaceOnUse"><path
         style="clip-rule:evenodd"
         id="path4053"
         d="M 1.0729e-5,0 H 720.00001 V 540 H 1.0729e-5 Z" /></clipPath><clipPath
       id="clipPath4067"
       clipPathUnits="userSpaceOnUse"><path
         style="clip-rule:evenodd"
         id="path4065"
         d="M 1.0729e-5,0 H 720.00001 V 540 H 1.0729e-5 Z" /></clipPath><clipPath
       id="clipPath4079"
       clipPathUnits="userSpaceOnUse"><path
         style="clip-rule:evenodd"
         id="path4077"
         d="M 1.0729e-5,0 H 720.00001 V 540 H 1.0729e-5 Z" /></clipPath><clipPath
       id="clipPath4091"
       clipPathUnits="userSpaceOnUse"><path
         style="clip-rule:evenodd"
         id="path4089"
         d="M 1.0729e-5,0 H 720.00001 V 540 H 1.0729e-5 Z" /></clipPath><clipPath
       id="clipPath4115"
       clipPathUnits="userSpaceOnUse"><path
         style="clip-rule:evenodd"
         id="path4113"
         d="M 1.0729e-5,0 H 720.00001 V 540 H 1.0729e-5 Z" /></clipPath><clipPath
       id="clipPath4127"
       clipPathUnits="userSpaceOnUse"><path
         style="clip-rule:evenodd"
         id="path4125"
         d="M 1.0729e-5,0 H 720.00001 V 540 H 1.0729e-5 Z" /></clipPath><clipPath
       id="clipPath4139"
       clipPathUnits="userSpaceOnUse"><path
         style="clip-rule:evenodd"
         id="path4137"
         d="M 1.0729e-5,0 H 720.00001 V 540 H 1.0729e-5 Z" /></clipPath><clipPath
       id="clipPath4151"
       clipPathUnits="userSpaceOnUse"><path
         style="clip-rule:evenodd"
         id="path4149"
         d="M -1.5246e-5,540 H 720 V 0 H -3.4931e-5" /></clipPath><clipPath
       id="clipPath4161"
       clipPathUnits="userSpaceOnUse"><path
         style="clip-rule:evenodd"
         id="path4159"
         d="M 1.05e-7,540 H 720 V 0 L -3.9265e-5,6.1035e-5" /></clipPath></defs><g
     transform="matrix(1.3333333,0,0,-1.3333333,0,720)"
     id="g3721"><g
       id="g3723"><g
         clip-path="url(#clipPath3729)"
         id="g3725"><path
           id="path3731"
           style="fill:#ffffff;fill-opacity:1;fill-rule:evenodd;stroke:none"
           d="M 0,6.1035e-5 H 720 V 540.00006 H 0 Z" /></g></g><g
       id="g3733"><path
         id="path3735"
         style="fill:none;stroke:#2f5597;stroke-width:2.27999997;stroke-linecap:butt;stroke-linejoin:round;stroke-miterlimit:10;stroke-dasharray:9.12, 6.84;stroke-dashoffset:0;stroke-opacity:1"
         d="m 477.72,120.9 -51.43,10.21 -1.43,126.11 103.57,-0.51 1.43,-118.96 z" /></g><g
       id="g3737"><path
         id="path3739"
         style="fill:none;stroke:#2f5597;stroke-width:2.27999997;stroke-linecap:butt;stroke-linejoin:round;stroke-miterlimit:10;stroke-dasharray:9.12, 6.84;stroke-dashoffset:0;stroke-opacity:1"
         d="m 475.02,272.46 -52.31,14.86 -1.45,183.5 105.35,-0.74 1.45,-173.1 z" /></g><g
       id="g3741"><path
         id="path3743"
         style="fill:none;stroke:#2f5597;stroke-width:2.27999997;stroke-linecap:butt;stroke-linejoin:round;stroke-miterlimit:10;stroke-dasharray:9.12, 6.84;stroke-dashoffset:0;stroke-opacity:1"
         d="m 215.9,338.58 -46.55,9.71 -1.29,119.89 93.75,-0.49 1.29,-113.09 z" /></g><g
       id="g3745"><path
         id="path3747"
         style="fill:none;stroke:#2f5597;stroke-width:2.27999997;stroke-linecap:butt;stroke-linejoin:round;stroke-miterlimit:10;stroke-dasharray:9.12, 6.84;stroke-dashoffset:0;stroke-opacity:1"
         d="m 217.58,269.22 -45.96,4.2 -1.28,51.84 92.56,-0.21 1.28,-48.9 z" /></g><g
       id="g3749"><path
         id="path3751"
         style="fill:none;stroke:#2f5597;stroke-width:2.27999997;stroke-linecap:butt;stroke-linejoin:round;stroke-miterlimit:10;stroke-dasharray:9.12, 6.84;stroke-dashoffset:0;stroke-opacity:1"
         d="m 218.6,125.46 -46.02,9.71 -1.28,119.89 92.68,-0.49 1.28,-113.09 z" /></g><path
       id="path3753"
       style="fill:none;stroke:#000000;stroke-width:2.27999997;stroke-linecap:butt;stroke-linejoin:round;stroke-miterlimit:10;stroke-dasharray:none;stroke-opacity:1"
       d="m 436.62,439.68 c 0,11.96 16.36,21.66 36.54,21.66 20.18,0 36.54,-9.7 36.54,-21.66 0,-11.96 -16.36,-21.66 -36.54,-21.66 -20.18,0 -36.54,9.7 -36.54,21.66 z" /><g
       id="g3755"><g
         clip-path="url(#clipPath3761)"
         id="g3757"><text
           id="text3765"
           style="font-variant:normal;font-weight:normal;font-size:20.04000092px;font-family:Helvetica;-inkscape-font-specification:Helvetica;writing-mode:lr-tb;fill:#000000;fill-opacity:1;fill-rule:nonzero;stroke:none"
           transform="matrix(1,0,0,-1,454.78,433.44)"><tspan
             id="tspan3763"
             y="0"
             x="0 10.02 21.222361 25.67124 31.242359">shift</tspan></text>
</g></g><path
       id="path3767"
       style="fill:none;stroke:#000000;stroke-width:2.27999997;stroke-linecap:butt;stroke-linejoin:round;stroke-miterlimit:10;stroke-dasharray:none;stroke-opacity:1"
       d="m 436.62,371.34 c 0,11.93 16.36,21.6 36.54,21.6 20.18,0 36.54,-9.67 36.54,-21.6 0,-11.93 -16.36,-21.6 -36.54,-21.6 -20.18,0 -36.54,9.67 -36.54,21.6 z" /><g
       id="g3769"><g
         clip-path="url(#clipPath3775)"
         id="g3771"><text
           id="text3779"
           style="font-variant:normal;font-weight:normal;font-size:20.04000092px;font-family:Helvetica;-inkscape-font-specification:Helvetica;writing-mode:lr-tb;fill:#000000;fill-opacity:1;fill-rule:nonzero;stroke:none"
           transform="matrix(1,0,0,-1,454.61,365.09)"><tspan
             id="tspan3777"
             y="0"
             x="0 11.16004 22.32008">and</tspan></text>
</g></g><path
       id="path3781"
       style="fill:none;stroke:#000000;stroke-width:2.27999997;stroke-linecap:butt;stroke-linejoin:round;stroke-miterlimit:10;stroke-dasharray:none;stroke-opacity:1"
       d="m 436.62,304.02 c 0,11.93 16.36,21.6 36.54,21.6 20.18,0 36.54,-9.67 36.54,-21.6 0,-11.93 -16.36,-21.6 -36.54,-21.6 -20.18,0 -36.54,9.67 -36.54,21.6 z" /><g
       id="g3783"><g
         clip-path="url(#clipPath3789)"
         id="g3785"><text
           id="text3793"
           style="font-variant:normal;font-weight:normal;font-size:20.04000092px;font-family:Helvetica;-inkscape-font-specification:Helvetica;writing-mode:lr-tb;fill:#000000;fill-opacity:1;fill-rule:nonzero;stroke:none"
           transform="matrix(1,0,0,-1,451.39,297.74)"><tspan
             id="tspan3791"
             y="0"
             x="0 11.70336 23.50692 28.777439">&gt;= 0</tspan></text>
</g></g><path
       id="path3795"
       style="fill:none;stroke:#000000;stroke-width:2.27999997;stroke-linecap:butt;stroke-linejoin:round;stroke-miterlimit:10;stroke-dasharray:none;stroke-opacity:1"
       d="m 437.22,221.16 c 0,11.96 16.39,21.66 36.6,21.66 20.21,0 36.6,-9.7 36.6,-21.66 0,-11.96 -16.39,-21.66 -36.6,-21.66 -20.21,0 -36.6,9.7 -36.6,21.66 z" /><g
       id="g3797"><g
         clip-path="url(#clipPath3803)"
         id="g3799"><text
           id="text3807"
           style="font-variant:normal;font-weight:normal;font-size:20.04000092px;font-family:Helvetica;-inkscape-font-specification:Helvetica;writing-mode:lr-tb;fill:#000000;fill-opacity:1;fill-rule:nonzero;stroke:none"
           transform="matrix(1,0,0,-1,445.78,214.87)"><tspan
             id="tspan3805"
             y="0"
             x="0 10.02 21.222361 25.67124 36.81348 46.873562">select</tspan></text>
</g></g><path
       id="path3809"
       style="fill:none;stroke:#000000;stroke-width:2.27999997;stroke-linecap:butt;stroke-linejoin:round;stroke-miterlimit:10;stroke-dasharray:none;stroke-opacity:1"
       d="m 436.62,152.76 c 0,11.1 16.36,20.1 36.54,20.1 20.18,0 36.54,-9 36.54,-20.1 0,-11.1 -16.36,-20.1 -36.54,-20.1 -20.18,0 -36.54,9 -36.54,20.1 z" /><g
       id="g3811"><g
         clip-path="url(#clipPath3817)"
         id="g3813"><text
           id="text3821"
           style="font-variant:normal;font-weight:normal;font-size:20.04000092px;font-family:Helvetica;-inkscape-font-specification:Helvetica;writing-mode:lr-tb;fill:#000000;fill-opacity:1;fill-rule:nonzero;stroke:none"
           transform="matrix(1,0,0,-1,457.42,145.3)"><tspan
             id="tspan3819"
             y="0"
             x="0 10.02 21.162239">xor</tspan></text>
</g></g><path
       id="path3823"
       style="fill:#000000;fill-opacity:1;fill-rule:nonzero;stroke:none"
       d="m 474.36,418.02 v -19.37 h -2.28 v 19.37 z m 2.28,-18.23 -3.42,-6.84 -3.42,6.84 z" /><path
       id="path3825"
       style="fill:#000000;fill-opacity:1;fill-rule:nonzero;stroke:none"
       d="m 473.28,348.47 0.75,-17.08 -2.28,-0.1 -0.75,17.08 z m 2.97,-15.84 -3.11,-6.99 -3.72,6.69 z" /><path
       id="path3827"
       style="fill:#000000;fill-opacity:1;fill-rule:nonzero;stroke:none"
       d="m 474.36,282.44 0.53,-33.89 -2.28,-0.04 -0.53,33.89 z m 2.79,-32.71 -3.31,-6.9 -3.53,6.79 z" /><path
       id="path3829"
       style="fill:#000000;fill-opacity:1;fill-rule:nonzero;stroke:none"
       d="m 472.7,199.53 -0.49,-20.93 2.28,-0.05 0.49,20.92 z m -2.74,-19.74 3.26,-6.91 3.58,6.76 z" /><path
       id="path3831"
       style="fill:#000000;fill-opacity:1;fill-rule:nonzero;stroke:none"
       d="m 474.36,132.66 0.07,-28.44 -2.28,-0.01 -0.07,28.45 z m 4.63,-27.29 -5.68,-6.856 -5.72,6.826 z" /><path
       id="path3833"
       style="fill:#000000;fill-opacity:1;fill-rule:nonzero;stroke:none"
       d="m 472.15,502.74 -0.06,-35.31 h 2.28 l 0.06,35.31 z m -2.34,-34.17 3.41,-6.84 3.43,6.83 z" /><path
       id="path3835"
       style="fill:none;stroke:#000000;stroke-width:2.27999997;stroke-linecap:butt;stroke-linejoin:round;stroke-miterlimit:10;stroke-dasharray:none;stroke-opacity:1"
       d="m 178.14,438.66 c 0,11.93 16.36,21.6 36.54,21.6 20.18,0 36.54,-9.67 36.54,-21.6 0,-11.93 -16.36,-21.6 -36.54,-21.6 -20.18,0 -36.54,9.67 -36.54,21.6 z" /><g
       id="g3837"><g
         clip-path="url(#clipPath3843)"
         id="g3839"><text
           id="text3847"
           style="font-variant:normal;font-weight:normal;font-size:20.04000092px;font-family:Helvetica;-inkscape-font-specification:Helvetica;writing-mode:lr-tb;fill:#000000;fill-opacity:1;fill-rule:nonzero;stroke:none"
           transform="matrix(1,0,0,-1,196.22,432.38)"><tspan
             id="tspan3845"
             y="0"
             x="0 10.02 21.222361 25.67124 31.242359">shift</tspan></text>
</g></g><path
       id="path3849"
       style="fill:none;stroke:#000000;stroke-width:2.27999997;stroke-linecap:butt;stroke-linejoin:round;stroke-miterlimit:10;stroke-dasharray:none;stroke-opacity:1"
       d="m 178.14,368.7 c 0,11.93 16.36,21.6 36.54,21.6 20.18,0 36.54,-9.67 36.54,-21.6 0,-11.93 -16.36,-21.6 -36.54,-21.6 -20.18,0 -36.54,9.67 -36.54,21.6 z" /><g
       id="g3851"><g
         clip-path="url(#clipPath3857)"
         id="g3853"><text
           id="text3861"
           style="font-variant:normal;font-weight:normal;font-size:20.04000092px;font-family:Helvetica;-inkscape-font-specification:Helvetica;writing-mode:lr-tb;fill:#000000;fill-opacity:1;fill-rule:nonzero;stroke:none"
           transform="matrix(1,0,0,-1,196.06,362.42)"><tspan
             id="tspan3859"
             y="0"
             x="0 11.16004 22.32008">and</tspan></text>
</g></g><path
       id="path3863"
       style="fill:none;stroke:#000000;stroke-width:2.27999997;stroke-linecap:butt;stroke-linejoin:round;stroke-miterlimit:10;stroke-dasharray:none;stroke-opacity:1"
       d="m 178.14,298.2 c 0,11.96 16.36,21.66 36.54,21.66 20.18,0 36.54,-9.7 36.54,-21.66 0,-11.96 -16.36,-21.66 -36.54,-21.66 -20.18,0 -36.54,9.7 -36.54,21.66 z" /><g
       id="g3865"><g
         clip-path="url(#clipPath3871)"
         id="g3867"><text
           id="text3875"
           style="font-variant:normal;font-weight:normal;font-size:20.04000092px;font-family:Helvetica;-inkscape-font-specification:Helvetica;writing-mode:lr-tb;fill:#000000;fill-opacity:1;fill-rule:nonzero;stroke:none"
           transform="matrix(1,0,0,-1,192.74,290.57)"><tspan
             id="tspan3873"
             y="0"
             x="0 11.70336 23.50692 28.777439">&gt;= 0</tspan></text>
</g></g><path
       id="path3877"
       style="fill:none;stroke:#000000;stroke-width:2.27999997;stroke-linecap:butt;stroke-linejoin:round;stroke-miterlimit:10;stroke-dasharray:none;stroke-opacity:1"
       d="m 178.74,218.52 c 0,11.96 16.36,21.66 36.54,21.66 20.18,0 36.54,-9.7 36.54,-21.66 0,-11.96 -16.36,-21.66 -36.54,-21.66 -20.18,0 -36.54,9.7 -36.54,21.66 z" /><g
       id="g3879"><g
         clip-path="url(#clipPath3885)"
         id="g3881"><text
           id="text3889"
           style="font-variant:normal;font-weight:normal;font-size:20.04000092px;font-family:Helvetica;-inkscape-font-specification:Helvetica;writing-mode:lr-tb;fill:#000000;fill-opacity:1;fill-rule:nonzero;stroke:none"
           transform="matrix(1,0,0,-1,187.22,212.21)"><tspan
             id="tspan3887"
             y="0"
             x="0 10.02 21.222361 25.67124 36.81348 46.873562">select</tspan></text>
</g></g><path
       id="path3891"
       style="fill:none;stroke:#000000;stroke-width:2.27999997;stroke-linecap:butt;stroke-linejoin:round;stroke-miterlimit:10;stroke-dasharray:none;stroke-opacity:1"
       d="m 178.14,154.32 c 0,11.96 16.36,21.66 36.54,21.66 20.18,0 36.54,-9.7 36.54,-21.66 0,-11.96 -16.36,-21.66 -36.54,-21.66 -20.18,0 -36.54,9.7 -36.54,21.66 z" /><g
       id="g3893"><g
         clip-path="url(#clipPath3899)"
         id="g3895"><text
           id="text3903"
           style="font-variant:normal;font-weight:normal;font-size:20.04000092px;font-family:Helvetica;-inkscape-font-specification:Helvetica;writing-mode:lr-tb;fill:#000000;fill-opacity:1;fill-rule:nonzero;stroke:none"
           transform="matrix(1,0,0,-1,198.86,148.01)"><tspan
             id="tspan3901"
             y="0"
             x="0 10.02 21.162239">xor</tspan></text>
</g></g><path
       id="path3905"
       style="fill:#000000;fill-opacity:1;fill-rule:nonzero;stroke:none"
       d="M 215.88,417.06 V 396.1 h -2.28 v 20.96 z m 2.28,-19.82 -3.42,-6.84 -3.42,6.84 z" /><path
       id="path3907"
       style="fill:#000000;fill-opacity:1;fill-rule:nonzero;stroke:none"
       d="m 215.88,347.1 v -21.55 h -2.28 v 21.55 z m 2.28,-20.41 -3.42,-6.84 -3.42,6.84 z" /><path
       id="path3909"
       style="fill:#000000;fill-opacity:1;fill-rule:nonzero;stroke:none"
       d="m 215.88,271.28 0.51,-25.38 -2.28,-0.04 -0.51,25.38 z m 2.76,-24.19 -3.28,-6.91 -3.56,6.77 z" /><path
       id="path3911"
       style="fill:#000000;fill-opacity:1;fill-rule:nonzero;stroke:none"
       d="m 213.6,196.86 v -15.2 h 2.28 v 15.2 z m -2.28,-14.06 3.42,-6.84 3.42,6.84 z" /><path
       id="path3913"
       style="fill:#000000;fill-opacity:1;fill-rule:nonzero;stroke:none"
       d="m 215.88,132.67 0.18,-32.712 -2.28,-0.013 -0.18,32.705 z m 4.73,-31.55 -5.66,-6.868 -5.74,6.808 z" /><path
       id="path3915"
       style="fill:#000000;fill-opacity:1;fill-rule:nonzero;stroke:none"
       d="m 215.16,504.08 0.54,-37.75 -2.28,-0.03 -0.54,37.74 z m 2.8,-36.58 -3.32,-6.89 -3.52,6.8 z" /><g
       id="g3917"><path
         id="path3919"
         style="fill:none;stroke:#7f7f7f;stroke-width:3;stroke-linecap:butt;stroke-linejoin:miter;stroke-miterlimit:8;stroke-dasharray:9, 3;stroke-dashoffset:0;stroke-opacity:1"
         d="M 378.66,483.9 H 558.23" /></g><g
       id="g3921"><path
         id="path3923"
         style="fill:none;stroke:#7f7f7f;stroke-width:3;stroke-linecap:butt;stroke-linejoin:miter;stroke-miterlimit:8;stroke-dasharray:9, 3;stroke-dashoffset:0;stroke-opacity:1"
         d="M 378.78,117.42 H 558.06" /></g><g
       id="g3925"><g
         clip-path="url(#clipPath3931)"
         id="g3927"><text
           id="text3935"
           style="font-variant:normal;font-weight:normal;font-size:20.04000092px;font-family:Helvetica;-inkscape-font-specification:Helvetica;writing-mode:lr-tb;fill:#000000;fill-opacity:1;fill-rule:nonzero;stroke:none"
           transform="matrix(1,0,0,-1,106.92,71.208)"><tspan
             id="tspan3933"
             y="0"
             x="0 6.6733198 17.875681 24.549 29.879641 43.246319 54.388561 65.570877 76.71312 87.915482 93.486603 97.935478 114.6288 125.77104 130.21992 135.61069 145.6908 155.77092 166.91316 178.11552 189.25777 200.46011 204.909">(a) Suboptimal schedule</tspan></text>
</g></g><g
       id="g3937"><g
         clip-path="url(#clipPath3943)"
         id="g3939"><text
           id="text3947"
           style="font-variant:normal;font-weight:normal;font-size:20.04000092px;font-family:Helvetica;-inkscape-font-specification:Helvetica;writing-mode:lr-tb;fill:#000000;fill-opacity:1;fill-rule:nonzero;stroke:none"
           transform="matrix(1,0,0,-1,361.87,71.208)"><tspan
             id="tspan3945"
             y="0"
             x="0 6.6733198 17.85564 24.528959 29.8596 46.552921 57.69516 68.837402 79.979637 84.42852 95.570763">(b) Mapping</tspan></text>
</g></g><g
       id="g3949"><g
         clip-path="url(#clipPath3955)"
         id="g3951"><text
           id="text3959"
           style="font-variant:normal;font-weight:normal;font-size:20.04000092px;font-family:Helvetica;-inkscape-font-specification:Helvetica;writing-mode:lr-tb;fill:#000000;fill-opacity:1;fill-rule:nonzero;stroke:none"
           transform="matrix(1,0,0,-1,468.7,71.208)"><tspan
             id="tspan3957"
             y="0"
             x="0">-</tspan></text>
</g></g><g
       id="g3961"><g
         clip-path="url(#clipPath3967)"
         id="g3963"><text
           id="text3971"
           style="font-variant:normal;font-weight:normal;font-size:20.04000092px;font-family:Helvetica;-inkscape-font-specification:Helvetica;writing-mode:lr-tb;fill:#000000;fill-opacity:1;fill-rule:nonzero;stroke:none"
           transform="matrix(1,0,0,-1,475.42,71.208)"><tspan
             id="tspan3969"
             y="0"
             x="0 11.14224 25.651199 36.793442 43.466759 54.609001 59.739239 69.759239 79.87944 91.021683 102.16392 113.30616 124.50852 128.9574">aware schedule</tspan></text>
</g></g><g
       id="g3973"><path
         id="path3975"
         style="fill:none;stroke:#7f7f7f;stroke-width:3;stroke-linecap:butt;stroke-linejoin:miter;stroke-miterlimit:8;stroke-dasharray:9, 3;stroke-dashoffset:0;stroke-opacity:1"
         d="M 102.42,335.82 H 327.78" /></g><g
       id="g3977"><path
         id="path3979"
         style="fill:none;stroke:#7f7f7f;stroke-width:3;stroke-linecap:butt;stroke-linejoin:miter;stroke-miterlimit:8;stroke-dasharray:9, 3;stroke-dashoffset:0;stroke-opacity:1"
         d="M 102.42,262.14 H 327.78" /></g><g
       id="g3981"><path
         id="path3983"
         style="fill:none;stroke:#7f7f7f;stroke-width:3;stroke-linecap:butt;stroke-linejoin:miter;stroke-miterlimit:8;stroke-dasharray:9, 3;stroke-dashoffset:0;stroke-opacity:1"
         d="M 102.42,483.42 H 327.78" /></g><g
       id="g3985"><path
         id="path3987"
         style="fill:none;stroke:#7f7f7f;stroke-width:3;stroke-linecap:butt;stroke-linejoin:miter;stroke-miterlimit:8;stroke-dasharray:9, 3;stroke-dashoffset:0;stroke-opacity:1"
         d="M 102.42,117.42 H 327.78" /></g><g
       id="g3989"><g
         clip-path="url(#clipPath3995)"
         id="g3991"><text
           id="text3999"
           style="font-variant:normal;font-weight:normal;font-size:18.02400017px;font-family:Helvetica;-inkscape-font-specification:Helvetica;writing-mode:lr-tb;fill:#000000;fill-opacity:1;fill-rule:nonzero;stroke:none"
           transform="matrix(1,0,0,-1,39.192,477.46)"><tspan
             id="tspan3997"
             y="0"
             x="0 9.0120001 17.753639 26.76564 30.766968 40.680168 45.943176">cycle 0</tspan></text>
</g></g><g
       id="g4001"><g
         clip-path="url(#clipPath4007)"
         id="g4003"><text
           id="text4011"
           style="font-variant:normal;font-weight:normal;font-size:18px;font-family:Helvetica;-inkscape-font-specification:Helvetica;writing-mode:lr-tb;fill:#000000;fill-opacity:1;fill-rule:nonzero;stroke:none"
           transform="matrix(1,0,0,-1,39.192,329.3)"><tspan
             id="tspan4009"
             y="0"
             x="0 9 17.766001 26.766001 30.761999 40.68 45.936001">cycle 1</tspan></text>
</g></g><g
       id="g4013"><g
         clip-path="url(#clipPath4019)"
         id="g4015"><text
           id="text4023"
           style="font-variant:normal;font-weight:normal;font-size:18px;font-family:Helvetica;-inkscape-font-specification:Helvetica;writing-mode:lr-tb;fill:#000000;fill-opacity:1;fill-rule:nonzero;stroke:none"
           transform="matrix(1,0,0,-1,39.192,255.94)"><tspan
             id="tspan4021"
             y="0"
             x="0 9 17.766001 26.766001 30.761999 40.68 45.936001">cycle 2</tspan></text>
</g></g><g
       id="g4025"><g
         clip-path="url(#clipPath4031)"
         id="g4027"><text
           id="text4035"
           style="font-variant:normal;font-weight:normal;font-size:18px;font-family:Helvetica;-inkscape-font-specification:Helvetica;writing-mode:lr-tb;fill:#000000;fill-opacity:1;fill-rule:nonzero;stroke:none"
           transform="matrix(1,0,0,-1,39.192,112.18)"><tspan
             id="tspan4033"
             y="0"
             x="0 9 17.766001 26.766001 30.761999 40.68 45.936001">cycle 3</tspan></text>
</g></g><g
       id="g4037"><g
         clip-path="url(#clipPath4043)"
         id="g4039"><text
           id="text4047"
           style="font-variant:normal;font-weight:normal;font-size:18px;font-family:Helvetica;-inkscape-font-specification:Helvetica;writing-mode:lr-tb;fill:#000000;fill-opacity:1;fill-rule:nonzero;stroke:none"
           transform="matrix(1,0,0,-1,564.53,110.62)"><tspan
             id="tspan4045"
             y="0"
             x="0 9 17.766001 26.766001 30.761999 40.68 45.936001">cycle 1</tspan></text>
</g></g><g
       id="g4049"><g
         clip-path="url(#clipPath4055)"
         id="g4051"><text
           id="text4059"
           style="font-variant:normal;font-weight:normal;font-size:18px;font-family:Helvetica;-inkscape-font-specification:Helvetica;writing-mode:lr-tb;fill:#000000;fill-opacity:1;fill-rule:nonzero;stroke:none"
           transform="matrix(1,0,0,-1,564.53,478.08)"><tspan
             id="tspan4057"
             y="0"
             x="0 9 17.766001 26.766001 30.761999 40.68 45.936001">cycle 0</tspan></text>
</g></g><g
       id="g4061"><g
         clip-path="url(#clipPath4067)"
         id="g4063"><text
           id="text4071"
           style="font-variant:normal;font-weight:normal;font-size:18px;font-family:Helvetica;-inkscape-font-specification:Helvetica;writing-mode:lr-tb;fill:#000000;fill-opacity:1;fill-rule:nonzero;stroke:none"
           transform="matrix(1,0,0,-1,538.39,362.45)"><tspan
             id="tspan4069"
             y="0"
             x="0">4</tspan></text>
</g></g><g
       id="g4073"><g
         clip-path="url(#clipPath4079)"
         id="g4075"><text
           id="text4083"
           style="font-variant:normal;font-weight:normal;font-size:18px;font-family:Helvetica;-inkscape-font-specification:Helvetica;writing-mode:lr-tb;fill:#000000;fill-opacity:1;fill-rule:nonzero;stroke:none"
           transform="matrix(1,0,0,-1,548.35,362.45)"><tspan
             id="tspan4081"
             y="0"
             x="0">-</tspan></text>
</g></g><g
       id="g4085"><g
         clip-path="url(#clipPath4091)"
         id="g4087"><text
           id="text4095"
           style="font-variant:normal;font-weight:normal;font-size:18px;font-family:Helvetica;-inkscape-font-specification:Helvetica;writing-mode:lr-tb;fill:#000000;fill-opacity:1;fill-rule:nonzero;stroke:none"
           transform="matrix(1,0,0,-1,554.35,362.45)"><tspan
             id="tspan4093"
             y="0"
             x="0 10.008 22.914">LUT</tspan></text>
</g></g><path
       id="path4097"
       style="fill:#000000;fill-opacity:1;fill-rule:nonzero;stroke:none"
       d="m 146.05,416.3 38.8,-28.05 -1.33,-1.84 -38.81,28.05 z m 39.21,-25.53 3.54,-6.78 -7.54,1.24 z" /><path
       id="path4099"
       style="fill:#000000;fill-opacity:1;fill-rule:nonzero;stroke:none"
       d="m 140.29,261.5 38.8,-28.05 -1.33,-1.84 -38.81,28.05 z m 39.21,-25.53 3.54,-6.78 -7.54,1.24 z" /><path
       id="path4101"
       style="fill:#000000;fill-opacity:1;fill-rule:nonzero;stroke:none"
       d="m 140.29,197.06 38.8,-28.05 -1.33,-1.84 -38.81,28.05 z m 39.21,-25.53 3.54,-6.78 -7.54,1.24 z" /><path
       id="path4103"
       style="fill:#000000;fill-opacity:1;fill-rule:nonzero;stroke:none"
       d="m 400.45,416.54 38.8,-28.05 -1.33,-1.84 -38.81,28.05 z m 39.21,-25.53 3.54,-6.78 -7.54,1.24 z" /><path
       id="path4105"
       style="fill:#000000;fill-opacity:1;fill-rule:nonzero;stroke:none"
       d="m 397.81,262.82 38.8,-28.05 -1.33,-1.84 -38.81,28.05 z m 39.21,-25.53 3.54,-6.78 -7.54,1.24 z" /><path
       id="path4107"
       style="fill:#000000;fill-opacity:1;fill-rule:nonzero;stroke:none"
       d="m 397.81,195.74 38.8,-28.05 -1.33,-1.84 -38.81,28.05 z m 39.21,-25.53 3.54,-6.78 -7.54,1.24 z" /><g
       id="g4109"><g
         clip-path="url(#clipPath4115)"
         id="g4111"><text
           id="text4119"
           style="font-variant:normal;font-weight:normal;font-size:18px;font-family:Helvetica;-inkscape-font-specification:Helvetica;writing-mode:lr-tb;fill:#000000;fill-opacity:1;fill-rule:nonzero;stroke:none"
           transform="matrix(1,0,0,-1,276.24,400.46)"><tspan
             id="tspan4117"
             y="0"
             x="0">4</tspan></text>
</g></g><g
       id="g4121"><g
         clip-path="url(#clipPath4127)"
         id="g4123"><text
           id="text4131"
           style="font-variant:normal;font-weight:normal;font-size:18px;font-family:Helvetica;-inkscape-font-specification:Helvetica;writing-mode:lr-tb;fill:#000000;fill-opacity:1;fill-rule:nonzero;stroke:none"
           transform="matrix(1,0,0,-1,286.2,400.46)"><tspan
             id="tspan4129"
             y="0"
             x="0">-</tspan></text>
</g></g><g
       id="g4133"><g
         clip-path="url(#clipPath4139)"
         id="g4135"><text
           id="text4143"
           style="font-variant:normal;font-weight:normal;font-size:18px;font-family:Helvetica;-inkscape-font-specification:Helvetica;writing-mode:lr-tb;fill:#000000;fill-opacity:1;fill-rule:nonzero;stroke:none"
           transform="matrix(1,0,0,-1,292.2,400.46)"><tspan
             id="tspan4141"
             y="0"
             x="0 10.008 22.914">LUT</tspan></text>
</g></g><g
       id="g4145"><g
         clip-path="url(#clipPath4151)"
         id="g4147"><path
           id="path4153"
           style="fill:#000000;fill-opacity:1;fill-rule:nonzero;stroke:none"
           d="m 219.48,131.41 0.06,-1.14 -0.01,0.1 0.16,-1.14 -0.02,0.1 0.27,-1.14 -0.03,0.1 0.39,-1.12 -0.03,0.07 0.47,-1.12 -0.04,0.08 0.58,-1.11 -0.04,0.07 0.67,-1.09 -0.04,0.06 0.76,-1.08 -0.04,0.05 0.84,-1.07 -0.04,0.05 0.92,-1.04 -0.04,0.05 1,-1.02 -0.03,0.03 1.07,-1 -0.04,0.04 1.15,-0.98 -0.05,0.04 1.23,-0.94 -0.04,0.02 1.28,-0.9 -0.04,0.02 1.34,-0.88 -0.03,0.03 1.4,-0.84 -0.03,0.02 1.44,-0.81 -0.04,0.03 1.51,-0.76 -0.03,0.01 1.54,-0.72 -0.03,0.02 1.59,-0.68 -0.04,0.02 1.63,-0.63 -0.04,0.01 1.67,-0.57 -0.03,0.01 1.69,-0.53 -0.03,0.01 1.72,-0.47 -0.03,0.01 1.75,-0.42 -0.04,0.01 1.77,-0.36 h -0.03 l 1.79,-0.3 -0.04,0.01 1.8,-0.23 h -0.04 l 1.82,-0.17 h -0.04 l 1.82,-0.1 h -0.04 l 1.82,-0.04 h -0.06 l 0.92,0.03 h -0.06 l 0.91,0.07 h -0.08 l 0.92,0.13 -0.06,-0.01 0.91,0.18 -0.06,-0.01 0.92,0.23 -0.06,-0.02 0.9,0.29 -0.05,-0.02 0.9,0.33 -0.05,-0.02 0.9,0.38 -0.04,-0.02 0.9,0.43 -0.05,-0.02 0.89,0.47 -0.04,-0.02 0.89,0.51 -0.04,-0.02 0.88,0.57 -0.04,-0.03 1.75,1.25 -0.06,-0.05 1.72,1.43 -0.05,-0.05 1.69,1.59 -0.04,-0.04 1.66,1.74 -0.04,-0.05 1.63,1.89 -0.03,-0.04 1.6,2.03 -0.04,-0.04 1.55,2.17 -0.03,-0.04 1.5,2.3 -0.02,-0.04 1.45,2.41 -0.02,-0.03 1.4,2.53 -0.02,-0.04 1.34,2.64 -0.02,-0.03 1.28,2.74 -0.01,-0.04 1.21,2.83 -0.01,-0.03 1.15,2.92 -0.02,-0.03 1.08,3 -0.01,-0.03 1,3.07 -0.01,-0.03 0.92,3.14 -0.01,-0.03 0.84,3.2 v -0.03 l 0.75,3.26 -0.01,-0.03 0.67,3.3 -0.01,-0.03 0.57,3.34 v -0.03 l 0.47,3.38 -0.01,-0.03 0.38,3.4 v -0.03 l 0.27,3.43 -0.01,-0.04 0.17,3.44 v -0.04 l 0.05,3.45 v -0.02 3.41 -0.04 l -0.12,3.44 v -0.02 l -0.19,3.42 v -0.03 l -0.27,3.4 v -0.02 l -0.34,3.38 0.01,-0.03 -0.41,3.35 v -0.03 l -0.47,3.3 v -0.02 l -0.53,3.26 0.01,-0.03 -0.6,3.21 0.01,-0.03 -0.66,3.14 v -0.02 l -0.7,3.08 0.01,-0.03 -0.77,3 0.01,-0.03 -0.81,2.92 v -0.02 l -0.86,2.83 0.01,-0.03 -0.91,2.74 0.01,-0.02 -0.94,2.64 0.01,-0.04 -0.99,2.53 0.01,-0.03 -1.03,2.42 0.02,-0.04 -1.07,2.29 0.02,-0.03 -1.1,2.16 0.03,-0.03 -1.13,2.03 0.02,-0.04 -1.15,1.89 0.03,-0.05 -1.18,1.74 0.04,-0.05 -1.21,1.59 0.04,-0.05 -1.22,1.42 0.05,-0.05 -1.24,1.26 0.05,-0.05 -0.62,0.56 0.04,-0.03 -0.63,0.51 0.04,-0.03 -0.63,0.48 0.05,-0.04 -0.64,0.43 0.05,-0.03 -0.64,0.38 0.07,-0.04 -0.64,0.33 0.05,-0.02 -0.64,0.28 0.08,-0.03 -0.64,0.23 0.08,-0.02 -0.65,0.18 0.07,-0.02 -0.64,0.13 0.1,-0.01 -0.64,0.07 h 0.07 l -0.64,0.03 h 0.08 l -1.29,-0.03 h 0.04 l -1.29,-0.09 0.05,0.01 -1.28,-0.14 H 265 l -1.27,-0.19 0.05,0.01 -1.27,-0.25 0.04,0.01 -1.26,-0.3 0.04,0.01 -1.24,-0.34 0.05,0.01 -1.22,-0.39 0.06,0.03 -2.39,-0.92 0.08,0.03 -2.28,-1.07 0.08,0.04 -2.16,-1.22 0.07,0.04 -2.02,-1.35 0.06,0.04 -0.95,-0.72 0.04,0.03 -0.91,-0.75 0.04,0.03 -0.87,-0.77 0.04,0.04 -0.81,-0.8 0.03,0.03 -0.76,-0.82 0.04,0.05 -0.7,-0.85 0.03,0.04 -0.65,-0.86 0.03,0.05 -0.6,-0.88 0.11,0.21 -0.8,-1.91 -2.1,0.88 0.84,2.01 0.69,1 0.68,0.9 0.74,0.89 0.8,0.86 0.85,0.84 0.9,0.8 0.94,0.78 0.99,0.76 2.09,1.39 2.23,1.27 2.36,1.1 2.45,0.95 1.28,0.4 1.28,0.35 1.3,0.31 1.31,0.26 1.32,0.2 1.34,0.15 1.34,0.08 1.36,0.04 0.72,-0.04 0.74,-0.08 0.73,-0.16 0.72,-0.2 0.72,-0.26 0.71,-0.31 0.7,-0.37 0.7,-0.41 0.68,-0.46 0.68,-0.51 0.67,-0.55 0.67,-0.6 1.29,-1.31 1.26,-1.48 1.25,-1.65 1.21,-1.78 1.18,-1.94 1.15,-2.07 1.11,-2.2 1.08,-2.32 1.05,-2.45 1,-2.56 0.95,-2.67 0.92,-2.76 0.87,-2.86 0.82,-2.95 0.77,-3.02 0.71,-3.1 0.66,-3.17 0.6,-3.22 0.54,-3.28 0.47,-3.33 0.41,-3.36 0.34,-3.4 0.27,-3.43 0.2,-3.45 0.12,-3.47 v -3.44 l -0.05,-3.47 -0.17,-3.47 -0.27,-3.47 -0.38,-3.44 -0.48,-3.41 -0.57,-3.38 -0.68,-3.33 -0.76,-3.3 -0.84,-3.23 -0.94,-3.18 -1.01,-3.1 -1.08,-3.04 -1.17,-2.95 -1.22,-2.86 -1.3,-2.77 -1.36,-2.68 -1.42,-2.56 -1.47,-2.45 -1.52,-2.34 -1.57,-2.2 -1.63,-2.08 -1.67,-1.93 -1.71,-1.78 -1.74,-1.64 -1.78,-1.47 -1.81,-1.29 -0.93,-0.6 -0.93,-0.54 -0.93,-0.5 -0.95,-0.45 -0.95,-0.4 -0.95,-0.35 -0.96,-0.3 -0.98,-0.25 -0.96,-0.19 -0.98,-0.15 -0.97,-0.08 -0.98,-0.03 -1.87,0.04 -1.86,0.11 -1.87,0.17 -1.84,0.24 -1.83,0.31 -1.81,0.37 -1.79,0.43 -1.76,0.48 -1.73,0.53 -1.71,0.59 -1.67,0.65 -1.62,0.69 -1.58,0.73 -1.54,0.78 -1.49,0.82 -1.43,0.86 -1.39,0.91 -1.31,0.93 -1.26,0.97 -1.19,1.01 -1.1,1.03 -1.05,1.06 -0.96,1.09 -0.88,1.11 -0.8,1.14 -0.71,1.16 -0.61,1.18 -0.51,1.21 -0.41,1.21 -0.3,1.24 -0.18,1.25 -0.06,1.2 z m 26.8,108.04 -5.17,-5.63 -1.4,7.52 z" /></g></g><g
       id="g4155"><g
         clip-path="url(#clipPath4161)"
         id="g4157"><path
           id="path4163"
           style="fill:#000000;fill-opacity:1;fill-rule:nonzero;stroke:none"
           d="m 478.08,131.65 0.06,-1.14 -0.01,0.1 0.16,-1.14 -0.02,0.1 0.27,-1.14 -0.03,0.1 0.39,-1.12 -0.03,0.07 0.47,-1.12 -0.04,0.08 0.58,-1.11 -0.04,0.07 0.67,-1.09 -0.04,0.06 0.76,-1.08 -0.04,0.05 0.84,-1.07 -0.04,0.05 0.92,-1.04 -0.04,0.05 1,-1.02 -0.03,0.03 1.07,-1 -0.04,0.04 1.15,-0.98 -0.05,0.04 1.23,-0.94 -0.04,0.02 1.28,-0.9 -0.04,0.02 1.34,-0.88 -0.03,0.03 1.4,-0.84 -0.03,0.02 1.44,-0.81 -0.04,0.03 1.51,-0.76 -0.03,0.01 1.54,-0.72 -0.03,0.02 1.59,-0.68 -0.04,0.02 1.63,-0.63 -0.04,0.01 1.67,-0.57 -0.03,0.01 1.69,-0.53 -0.03,0.01 1.72,-0.47 -0.03,0.01 1.75,-0.42 -0.04,0.01 1.77,-0.36 h -0.03 l 1.79,-0.3 -0.04,0.01 1.8,-0.23 h -0.04 l 1.82,-0.17 h -0.04 l 1.82,-0.1 h -0.04 l 1.82,-0.04 h -0.06 l 0.92,0.03 h -0.06 l 0.91,0.07 h -0.08 l 0.92,0.13 -0.06,-0.01 0.91,0.18 -0.06,-0.01 0.92,0.23 -0.06,-0.02 0.9,0.29 -0.05,-0.02 0.9,0.33 -0.05,-0.02 0.9,0.38 -0.04,-0.02 0.9,0.43 -0.05,-0.02 0.89,0.47 -0.04,-0.02 0.89,0.51 -0.04,-0.02 0.88,0.57 -0.04,-0.03 1.75,1.25 -0.06,-0.05 1.72,1.43 -0.05,-0.05 1.69,1.59 -0.04,-0.04 1.66,1.74 -0.04,-0.05 1.63,1.89 -0.03,-0.04 1.6,2.03 -0.04,-0.04 1.55,2.17 -0.03,-0.04 1.5,2.3 -0.02,-0.04 1.45,2.41 -0.02,-0.03 1.4,2.53 -0.02,-0.04 1.34,2.64 -0.02,-0.03 1.28,2.74 -0.01,-0.04 1.21,2.83 -0.01,-0.03 1.15,2.92 -0.02,-0.03 1.08,3 -0.01,-0.03 1,3.07 -0.01,-0.03 0.92,3.14 -0.01,-0.03 0.84,3.2 v -0.03 l 0.75,3.26 -0.01,-0.03 0.67,3.3 -0.01,-0.03 0.57,3.34 v -0.03 l 0.47,3.38 -0.01,-0.03 0.38,3.4 v -0.03 l 0.27,3.43 -0.01,-0.04 0.17,3.44 v -0.04 l 0.05,3.45 v -0.02 3.41 -0.04 l -0.12,3.44 v -0.02 l -0.19,3.42 v -0.03 l -0.27,3.4 v -0.02 l -0.34,3.38 0.01,-0.03 -0.41,3.35 v -0.03 l -0.47,3.3 v -0.02 l -0.53,3.26 0.01,-0.03 -0.6,3.21 0.01,-0.03 -0.66,3.14 v -0.02 l -0.7,3.08 0.01,-0.03 -0.77,3 0.01,-0.03 -0.81,2.92 v -0.02 l -0.86,2.83 0.01,-0.03 -0.91,2.74 0.01,-0.02 -0.94,2.64 0.01,-0.04 -0.99,2.53 0.01,-0.03 -1.03,2.42 0.02,-0.04 -1.07,2.29 0.02,-0.03 -1.1,2.16 0.03,-0.03 -1.13,2.03 0.02,-0.04 -1.15,1.89 0.03,-0.05 -1.18,1.74 0.04,-0.05 -1.21,1.59 0.04,-0.05 -1.22,1.42 0.05,-0.05 -1.24,1.26 0.05,-0.05 -0.62,0.56 0.04,-0.03 -0.63,0.51 0.04,-0.03 -0.63,0.48 0.05,-0.04 -0.64,0.43 0.05,-0.03 -0.64,0.38 0.07,-0.04 -0.64,0.33 0.05,-0.02 -0.64,0.28 0.08,-0.03 -0.64,0.23 0.08,-0.02 -0.65,0.18 0.07,-0.02 -0.64,0.13 0.1,-0.01 -0.64,0.07 h 0.07 l -0.64,0.03 h 0.08 l -1.29,-0.03 h 0.04 l -1.29,-0.09 0.05,0.01 -1.28,-0.14 h 0.04 l -1.27,-0.19 0.05,0.01 -1.27,-0.25 0.04,0.01 -1.26,-0.3 0.04,0.01 -1.24,-0.34 0.05,0.01 -1.22,-0.39 0.06,0.03 -2.39,-0.92 0.08,0.03 -2.28,-1.07 0.08,0.04 -2.16,-1.22 0.07,0.04 -2.02,-1.35 0.06,0.04 -0.95,-0.72 0.04,0.03 -0.91,-0.75 0.04,0.03 -0.87,-0.77 0.04,0.04 -0.81,-0.8 0.03,0.03 -0.76,-0.82 0.04,0.05 -0.7,-0.85 0.03,0.04 -0.65,-0.86 0.03,0.05 -0.6,-0.88 0.11,0.21 -0.8,-1.91 -2.1,0.88 0.84,2.01 0.69,1 0.68,0.9 0.74,0.89 0.8,0.86 0.85,0.84 0.9,0.8 0.94,0.78 0.99,0.76 2.09,1.39 2.23,1.27 2.36,1.1 2.45,0.95 1.28,0.4 1.28,0.35 1.3,0.31 1.31,0.26 1.32,0.2 1.34,0.15 1.34,0.08 1.36,0.04 0.72,-0.04 0.74,-0.08 0.73,-0.16 0.72,-0.2 0.72,-0.26 0.71,-0.31 0.7,-0.37 0.7,-0.41 0.68,-0.46 0.68,-0.51 0.67,-0.55 0.67,-0.6 1.29,-1.31 1.26,-1.48 1.25,-1.65 1.21,-1.78 1.18,-1.94 1.15,-2.07 1.11,-2.2 1.08,-2.32 1.05,-2.45 1,-2.56 0.95,-2.67 0.92,-2.76 0.87,-2.86 0.82,-2.95 0.77,-3.02 0.71,-3.1 0.66,-3.17 0.6,-3.22 0.54,-3.28 0.47,-3.33 0.41,-3.36 0.34,-3.4 0.27,-3.43 0.2,-3.45 0.12,-3.47 v -3.44 l -0.05,-3.47 -0.17,-3.47 -0.27,-3.47 -0.38,-3.44 -0.48,-3.41 -0.57,-3.38 -0.68,-3.33 -0.76,-3.3 -0.84,-3.23 -0.94,-3.18 -1.01,-3.1 -1.08,-3.04 -1.17,-2.95 -1.22,-2.86 -1.3,-2.77 -1.36,-2.68 -1.42,-2.56 -1.47,-2.45 -1.52,-2.34 -1.57,-2.2 -1.63,-2.08 -1.67,-1.93 -1.71,-1.78 -1.74,-1.64 -1.78,-1.47 -1.81,-1.29 -0.93,-0.6 -0.93,-0.54 -0.93,-0.5 -0.95,-0.45 -0.95,-0.4 -0.95,-0.35 -0.96,-0.3 -0.98,-0.25 -0.96,-0.19 -0.98,-0.15 -0.97,-0.08 -0.98,-0.03 -1.87,0.04 -1.86,0.11 -1.87,0.17 -1.84,0.24 -1.83,0.31 -1.81,0.37 -1.79,0.43 -1.76,0.48 -1.73,0.53 -1.71,0.59 -1.67,0.65 -1.62,0.69 -1.58,0.73 -1.54,0.78 -1.49,0.82 -1.43,0.86 -1.39,0.91 -1.31,0.93 -1.26,0.97 -1.19,1.01 -1.1,1.03 -1.05,1.06 -0.96,1.09 -0.88,1.11 -0.8,1.14 -0.71,1.16 -0.61,1.18 -0.51,1.21 -0.41,1.21 -0.3,1.24 -0.18,1.25 -0.06,1.2 z m 26.8,108.04 -5.17,-5.63 -1.4,7.52 z" /></g></g></g></svg>